<svg xmlns="http://www.w3.org/2000/svg" xmlns:xlink="http://www.w3.org/1999/xlink" width="40" zoomAndPan="magnify" viewBox="0 0 30 30.000001" height="40" preserveAspectRatio="xMidYMid meet" version="1.0"><defs><filter x="0%" y="0%" width="100%" height="100%" id="0c54cb2f4f"><feColorMatrix values="0 0 0 0 1 0 0 0 0 1 0 0 0 0 1 0 0 0 1 0" color-interpolation-filters="sRGB"/></filter><clipPath id="7cf9f8cd33"><path d="M 2.59375 0.914062 L 6.574219 0.914062 L 6.574219 11.492188 L 2.59375 11.492188 Z M 2.59375 0.914062 " clip-rule="nonzero"/></clipPath><clipPath id="36bd1daf81"><path d="M 4.332031 9.074219 C 4.765625 9.652344 3.894531 10.015625 3.605469 9.871094 C 3.386719 9.726562 3.242188 9.363281 3.167969 8.855469 C 3.023438 7.621094 3.386719 3.339844 3.894531 2.03125 C 4.183594 1.453125 4.476562 1.089844 4.839844 0.945312 C 5.203125 0.871094 5.78125 0.945312 5.925781 1.234375 C 6.21875 1.597656 6 2.976562 5.636719 3.195312 C 5.417969 3.410156 4.765625 3.339844 4.476562 3.121094 C 4.183594 2.902344 3.894531 2.175781 3.96875 1.816406 C 4.039062 1.453125 4.765625 0.871094 5.128906 0.945312 C 5.566406 0.945312 6.074219 1.523438 6.363281 2.175781 C 6.871094 3.703125 6.21875 9.144531 5.636719 10.523438 C 5.417969 11.03125 5.203125 11.394531 4.765625 11.46875 C 4.257812 11.613281 3.023438 11.03125 2.734375 10.523438 C 2.515625 10.160156 2.589844 9.363281 2.878906 9.074219 C 3.167969 8.855469 4.332031 9.074219 4.332031 9.074219 " clip-rule="nonzero"/></clipPath><mask id="0d41488a92"><g filter="url(#0c54cb2f4f)"><rect x="-3" width="36" fill="#000000" y="-3" height="36.000001" fill-opacity="0.05"/></g></mask><clipPath id="7487acc2aa"><path d="M 0.59375 0.914062 L 4.574219 0.914062 L 4.574219 11.492188 L 0.59375 11.492188 Z M 0.59375 0.914062 " clip-rule="nonzero"/></clipPath><clipPath id="f0cfcf7e94"><path d="M 2.332031 9.074219 C 2.765625 9.652344 1.894531 10.015625 1.605469 9.871094 C 1.386719 9.726562 1.242188 9.363281 1.167969 8.855469 C 1.023438 7.621094 1.386719 3.339844 1.894531 2.03125 C 2.183594 1.453125 2.476562 1.089844 2.839844 0.945312 C 3.203125 0.871094 3.78125 0.945312 3.925781 1.234375 C 4.21875 1.597656 4 2.976562 3.636719 3.195312 C 3.417969 3.410156 2.765625 3.339844 2.476562 3.121094 C 2.183594 2.902344 1.894531 2.175781 1.96875 1.816406 C 2.039062 1.453125 2.765625 0.871094 3.128906 0.945312 C 3.566406 0.945312 4.074219 1.523438 4.363281 2.175781 C 4.871094 3.703125 4.21875 9.144531 3.636719 10.523438 C 3.417969 11.03125 3.203125 11.394531 2.765625 11.46875 C 2.257812 11.613281 1.023438 11.03125 0.734375 10.523438 C 0.515625 10.160156 0.589844 9.363281 0.878906 9.074219 C 1.167969 8.855469 2.332031 9.074219 2.332031 9.074219 " clip-rule="nonzero"/></clipPath><clipPath id="359664090c"><rect x="0" width="5" y="0" height="12"/></clipPath><clipPath id="49abd15ffe"><path d="M 0.484375 0.433594 L 29.515625 0.433594 L 29.515625 29 L 0.484375 29 Z M 0.484375 0.433594 " clip-rule="nonzero"/></clipPath></defs><g clip-path="url(#7cf9f8cd33)"><g clip-path="url(#36bd1daf81)"><g mask="url(#0d41488a92)"><g transform="matrix(1, 0, 0, 1, 2, 0.000000000000005773)"><g clip-path="url(#359664090c)"><g clip-path="url(#7487acc2aa)"><g clip-path="url(#f0cfcf7e94)"><rect x="-8.6" width="43.2" fill="#e7191f" height="43.200001" y="-6.6" fill-opacity="1"/></g></g></g></g></g></g></g><g clip-path="url(#49abd15ffe)"><path fill="#000000" d="M 7.011719 0.503906 C 5.582031 0.503906 4.417969 1.566406 4.230469 2.941406 L 2.0625 2.941406 C 1.238281 2.941406 0.484375 3.695312 0.484375 4.519531 L 0.484375 6.375 C 0.484375 6.386719 0.484375 6.394531 0.484375 6.402344 C 0.503906 7.148438 0.960938 7.800781 1.632812 8.089844 C 3.023438 8.722656 4.765625 9.144531 6.609375 9.296875 L 6.691406 9.066406 C 6.78125 8.808594 7.023438 8.632812 7.300781 8.632812 L 9.011719 8.632812 C 9.285156 8.632812 9.527344 8.808594 9.617188 9.066406 L 9.699219 9.296875 C 11.542969 9.144531 13.285156 8.722656 14.675781 8.089844 C 15.347656 7.800781 15.800781 7.148438 15.820312 6.402344 C 15.820312 6.394531 15.820312 6.386719 15.820312 6.375 L 15.820312 4.519531 C 15.820312 3.695312 15.070312 2.941406 14.242188 2.941406 L 12.078125 2.941406 C 11.890625 1.566406 10.726562 0.503906 9.296875 0.503906 Z M 6.898438 1.757812 L 9.410156 1.757812 C 10.15625 1.757812 10.773438 2.257812 10.960938 2.941406 L 5.347656 2.941406 C 5.535156 2.257812 6.152344 1.757812 6.898438 1.757812 Z M 26.210938 5.160156 C 26.097656 5.152344 25.984375 5.15625 25.875 5.175781 C 25.425781 5.253906 25.027344 5.554688 24.832031 5.964844 L 24.167969 7.34375 C 23.925781 7.847656 24.023438 8.488281 24.394531 8.90625 L 16.242188 17.054688 C 16.230469 17.070312 16.21875 17.085938 16.207031 17.101562 L 15.542969 17.761719 L 17.347656 15.5625 C 17.054688 15.460938 16.75 15.40625 16.441406 15.40625 C 15.699219 15.402344 14.988281 15.691406 14.464844 16.214844 C 13.382812 17.296875 13.382812 19.054688 14.464844 20.136719 C 15.550781 21.21875 17.304688 21.21875 18.386719 20.136719 C 19.144531 19.382812 19.398438 18.257812 19.039062 17.25 L 16.746094 19.128906 L 17.378906 18.492188 C 17.441406 18.457031 17.5 18.414062 17.550781 18.363281 L 25.699219 10.214844 C 26.121094 10.582031 26.761719 10.679688 27.261719 10.4375 L 28.640625 9.777344 C 29.050781 9.582031 29.355469 9.179688 29.429688 8.730469 C 29.507812 8.285156 29.355469 7.804688 29.035156 7.484375 L 28.222656 6.667969 L 27.125 5.570312 C 26.882812 5.332031 26.550781 5.1875 26.210938 5.160156 Z M 16.613281 8.011719 L 16.613281 9.859375 C 18.132812 9.890625 19.613281 10.339844 20.894531 11.15625 L 22.230469 9.824219 C 20.578125 8.679688 18.625 8.046875 16.613281 8.011719 Z M 15.804688 8.191406 C 15.570312 8.429688 15.292969 8.625 14.980469 8.761719 C 13.539062 9.421875 11.800781 9.855469 9.957031 10.03125 C 10.074219 10.367188 9.898438 10.734375 9.558594 10.851562 C 9.492188 10.875 9.421875 10.886719 9.347656 10.886719 L 6.957031 10.886719 C 6.601562 10.886719 6.3125 10.597656 6.316406 10.242188 C 6.316406 10.167969 6.328125 10.097656 6.351562 10.03125 C 4.507812 9.859375 2.769531 9.421875 1.324219 8.761719 C 1.011719 8.625 0.734375 8.429688 0.5 8.195312 L 0.5 13.328125 C 0.5 14.398438 1.363281 15.261719 2.433594 15.261719 L 13.875 15.261719 C 14.945312 15.261719 15.808594 14.398438 15.808594 13.328125 L 15.808594 8.191406 Z M 16.613281 11.710938 L 16.613281 13.332031 C 16.613281 13.40625 16.609375 13.484375 16.601562 13.558594 C 17.136719 13.578125 17.664062 13.691406 18.160156 13.894531 L 19.546875 12.507812 C 18.644531 12.011719 17.640625 11.738281 16.613281 11.710938 Z M 24.78125 12.378906 L 23.449219 13.710938 C 25.542969 17 25.070312 21.304688 22.3125 24.0625 C 19.0625 27.308594 13.792969 27.308594 10.546875 24.0625 C 10.546875 24.0625 10.542969 24.058594 10.542969 24.058594 C 8.453125 21.96875 7.628906 18.925781 8.382812 16.066406 L 6.480469 16.066406 C 5.765625 19.433594 6.800781 22.933594 9.238281 25.367188 C 13.207031 29.339844 19.644531 29.339844 23.617188 25.367188 C 27.097656 21.890625 27.585938 16.421875 24.78125 12.378906 Z M 22.097656 15.0625 L 20.714844 16.445312 C 21.410156 18.164062 21.007812 20.132812 19.695312 21.445312 C 17.890625 23.25 14.964844 23.25 13.160156 21.445312 C 11.738281 20.027344 11.398438 17.851562 12.316406 16.066406 L 10.3125 16.066406 C 9.503906 18.40625 10.101562 21 11.851562 22.753906 C 14.378906 25.28125 18.476562 25.28125 21.003906 22.753906 C 23.039062 20.71875 23.484375 17.585938 22.097656 15.0625 Z M 22.097656 15.0625 " fill-opacity="1" fill-rule="nonzero"/></g></svg>