<svg xmlns="http://www.w3.org/2000/svg" xmlns:xlink="http://www.w3.org/1999/xlink" width="40" zoomAndPan="magnify" viewBox="0 0 30 30.000001" height="40" preserveAspectRatio="xMidYMid meet" version="1.0"><defs><clipPath id="368670721b"><path d="M 0.484375 1 L 29.515625 1 L 29.515625 24 L 0.484375 24 Z M 0.484375 1 " clip-rule="nonzero"/></clipPath><clipPath id="330a0a73c3"><path d="M 23 10 L 29.515625 10 L 29.515625 15 L 23 15 Z M 23 10 " clip-rule="nonzero"/></clipPath><clipPath id="b26de54bef"><path d="M 0.484375 14 L 18 14 L 18 23 L 0.484375 23 Z M 0.484375 14 " clip-rule="nonzero"/></clipPath><clipPath id="f615c14bf6"><path d="M 23 12 L 29.515625 12 L 29.515625 18 L 23 18 Z M 23 12 " clip-rule="nonzero"/></clipPath><clipPath id="91256ca5f7"><path d="M 0.484375 17 L 18 17 L 18 25 L 0.484375 25 Z M 0.484375 17 " clip-rule="nonzero"/></clipPath><clipPath id="da620f9843"><path d="M 23 15 L 29.515625 15 L 29.515625 20 L 23 20 Z M 23 15 " clip-rule="nonzero"/></clipPath><clipPath id="ba9038642e"><path d="M 0.484375 20 L 18 20 L 18 28 L 0.484375 28 Z M 0.484375 20 " clip-rule="nonzero"/></clipPath></defs><g clip-path="url(#368670721b)"><path fill="#000000" d="M 22.679688 12.445312 C 22.675781 12.441406 22.675781 12.433594 22.675781 12.429688 C 22.671875 12.402344 22.667969 12.375 22.660156 12.351562 C 22.660156 12.351562 22.660156 12.347656 22.660156 12.347656 C 22.652344 12.324219 22.644531 12.300781 22.636719 12.277344 C 22.632812 12.269531 22.628906 12.261719 22.625 12.257812 C 22.617188 12.238281 22.609375 12.222656 22.601562 12.207031 C 22.597656 12.199219 22.59375 12.191406 22.589844 12.183594 C 22.585938 12.179688 22.585938 12.175781 22.582031 12.171875 C 22.574219 12.15625 22.5625 12.140625 22.550781 12.128906 C 22.550781 12.125 22.546875 12.121094 22.546875 12.121094 C 22.527344 12.097656 22.511719 12.078125 22.492188 12.058594 C 22.488281 12.058594 22.484375 12.054688 22.480469 12.050781 C 22.464844 12.035156 22.449219 12.019531 22.429688 12.007812 C 22.425781 12.003906 22.421875 12 22.417969 11.996094 C 22.394531 11.976562 22.371094 11.960938 22.34375 11.949219 L 12.667969 6.449219 L 18.238281 2.9375 L 27.582031 8.25 L 23.648438 10.726562 C 23.339844 10.917969 23.246094 11.324219 23.441406 11.632812 C 23.632812 11.9375 24.039062 12.03125 24.347656 11.835938 L 29.210938 8.777344 C 29.40625 8.652344 29.519531 8.4375 29.515625 8.203125 C 29.511719 7.972656 29.382812 7.761719 29.183594 7.648438 L 18.546875 1.601562 C 18.335938 1.484375 18.078125 1.488281 17.871094 1.617188 L 11.042969 5.917969 C 11.042969 5.917969 11.042969 5.917969 11.039062 5.921875 L 7.628906 8.070312 C 7.625 8.070312 7.625 8.070312 7.625 8.070312 L 0.789062 12.375 C 0.59375 12.496094 0.480469 12.714844 0.484375 12.945312 C 0.488281 13.175781 0.617188 13.386719 0.816406 13.5 L 11.453125 19.546875 C 11.554688 19.605469 11.664062 19.632812 11.777344 19.632812 C 11.898438 19.632812 12.019531 19.597656 12.128906 19.53125 L 16.988281 16.46875 C 17.296875 16.277344 17.386719 15.871094 17.195312 15.566406 C 17.003906 15.257812 16.597656 15.164062 16.289062 15.359375 L 11.761719 18.210938 L 2.417969 12.902344 L 7.992188 9.394531 L 17.953125 15.054688 L 17.953125 22.554688 C 17.953125 22.792969 18.082031 23.015625 18.292969 23.128906 C 18.390625 23.183594 18.5 23.210938 18.609375 23.210938 C 18.730469 23.210938 18.851562 23.179688 18.960938 23.113281 L 22.375 20.960938 C 22.566406 20.839844 22.683594 20.628906 22.683594 20.40625 L 22.683594 12.523438 C 22.683594 12.519531 22.683594 12.515625 22.683594 12.511719 C 22.683594 12.488281 22.679688 12.46875 22.679688 12.445312 Z M 19.265625 21.367188 L 19.265625 14.671875 C 19.265625 14.4375 19.140625 14.21875 18.933594 14.101562 L 9.253906 8.597656 L 11.40625 7.242188 L 20.746094 12.550781 L 19.929688 13.066406 C 19.625 13.257812 19.53125 13.664062 19.722656 13.972656 C 19.847656 14.171875 20.0625 14.277344 20.28125 14.277344 C 20.398438 14.277344 20.519531 14.246094 20.628906 14.179688 L 21.371094 13.710938 L 21.371094 20.042969 Z M 19.265625 21.367188 " fill-opacity="1" fill-rule="nonzero"/></g><g clip-path="url(#330a0a73c3)"><path fill="#000000" d="M 28.507812 10.292969 L 23.648438 13.351562 C 23.339844 13.546875 23.246094 13.953125 23.441406 14.257812 C 23.566406 14.457031 23.78125 14.566406 23.996094 14.566406 C 24.117188 14.566406 24.238281 14.53125 24.347656 14.464844 L 29.210938 11.402344 C 29.515625 11.210938 29.609375 10.804688 29.414062 10.496094 C 29.222656 10.191406 28.816406 10.097656 28.507812 10.292969 Z M 28.507812 10.292969 " fill-opacity="1" fill-rule="nonzero"/></g><g clip-path="url(#b26de54bef)"><path fill="#000000" d="M 16.289062 17.984375 L 11.761719 20.839844 L 1.464844 14.988281 C 1.148438 14.808594 0.75 14.917969 0.570312 15.234375 C 0.390625 15.546875 0.5 15.949219 0.816406 16.128906 L 11.453125 22.175781 C 11.554688 22.230469 11.664062 22.261719 11.777344 22.261719 C 11.898438 22.261719 12.019531 22.226562 12.128906 22.160156 L 16.988281 19.097656 C 17.296875 18.90625 17.386719 18.5 17.195312 18.191406 C 17.003906 17.886719 16.597656 17.792969 16.289062 17.984375 Z M 16.289062 17.984375 " fill-opacity="1" fill-rule="nonzero"/></g><g clip-path="url(#f615c14bf6)"><path fill="#000000" d="M 28.507812 12.917969 L 23.648438 15.980469 C 23.339844 16.171875 23.246094 16.578125 23.441406 16.886719 C 23.566406 17.085938 23.78125 17.191406 23.996094 17.191406 C 24.117188 17.191406 24.238281 17.160156 24.347656 17.09375 L 29.210938 14.03125 C 29.515625 13.835938 29.609375 13.429688 29.414062 13.125 C 29.222656 12.816406 28.816406 12.726562 28.507812 12.917969 Z M 28.507812 12.917969 " fill-opacity="1" fill-rule="nonzero"/></g><g clip-path="url(#91256ca5f7)"><path fill="#000000" d="M 16.289062 20.613281 L 11.761719 23.464844 L 1.464844 17.613281 C 1.148438 17.433594 0.75 17.546875 0.570312 17.859375 C 0.390625 18.175781 0.5 18.578125 0.816406 18.757812 L 11.453125 24.800781 C 11.554688 24.859375 11.664062 24.886719 11.777344 24.886719 C 11.898438 24.886719 12.019531 24.855469 12.128906 24.785156 L 16.988281 21.726562 C 17.296875 21.53125 17.386719 21.125 17.195312 20.820312 C 17.003906 20.511719 16.597656 20.421875 16.289062 20.613281 Z M 16.289062 20.613281 " fill-opacity="1" fill-rule="nonzero"/></g><g clip-path="url(#da620f9843)"><path fill="#000000" d="M 28.507812 15.546875 L 23.648438 18.609375 C 23.339844 18.800781 23.246094 19.207031 23.441406 19.511719 C 23.566406 19.710938 23.78125 19.820312 23.996094 19.820312 C 24.117188 19.820312 24.238281 19.789062 24.347656 19.71875 L 29.210938 16.65625 C 29.515625 16.464844 29.609375 16.058594 29.414062 15.75 C 29.222656 15.445312 28.816406 15.351562 28.507812 15.546875 Z M 28.507812 15.546875 " fill-opacity="1" fill-rule="nonzero"/></g><g clip-path="url(#ba9038642e)"><path fill="#000000" d="M 16.289062 23.242188 L 11.761719 26.09375 L 1.464844 20.242188 C 1.148438 20.0625 0.75 20.171875 0.570312 20.488281 C 0.390625 20.804688 0.5 21.203125 0.816406 21.382812 L 11.453125 27.429688 C 11.554688 27.488281 11.664062 27.515625 11.777344 27.515625 C 11.898438 27.515625 12.019531 27.480469 12.128906 27.414062 L 16.988281 24.351562 C 17.296875 24.160156 17.386719 23.753906 17.195312 23.445312 C 17.003906 23.140625 16.597656 23.046875 16.289062 23.242188 Z M 16.289062 23.242188 " fill-opacity="1" fill-rule="nonzero"/></g></svg>