<svg xmlns="http://www.w3.org/2000/svg" xmlns:xlink="http://www.w3.org/1999/xlink" width="40" zoomAndPan="magnify" viewBox="0 0 30 30.000001" height="40" preserveAspectRatio="xMidYMid meet" version="1.0"><defs><clipPath id="9bbecd9016"><path d="M 0.484375 4 L 29.515625 4 L 29.515625 29 L 0.484375 29 Z M 0.484375 4 " clip-rule="nonzero"/></clipPath></defs><g clip-path="url(#9bbecd9016)"><path fill="#000000" d="M 25.59375 24.457031 C 25.480469 23.957031 25.570312 23.390625 25.863281 22.914062 L 28.246094 19.128906 C 28.8125 18.21875 28.949219 17.0625 28.699219 16.066406 L 26.839844 7.878906 C 26.703125 7.21875 26.046875 6.789062 25.367188 6.949219 C 24.707031 7.082031 24.300781 7.742188 24.457031 8.421875 L 25.613281 13.457031 C 25.863281 13.503906 26.113281 13.59375 26.316406 13.753906 C 26.773438 14.046875 27.113281 14.5 27.226562 15.023438 C 27.339844 15.542969 27.246094 16.109375 26.953125 16.566406 L 24.207031 20.917969 C 24.09375 21.101562 23.847656 21.191406 23.640625 21.03125 C 23.460938 20.917969 23.371094 20.671875 23.527344 20.488281 L 26.296875 16.109375 C 26.660156 15.542969 26.476562 14.796875 25.910156 14.433594 C 25.34375 14.070312 24.59375 14.25 24.230469 14.816406 L 20.785156 20.285156 C 20.214844 21.167969 19.785156 22.210938 20.285156 23.210938 L 23.710938 28.746094 L 29.289062 28.722656 Z M 5.835938 14.816406 C 5.472656 14.25 4.726562 14.070312 4.160156 14.433594 C 3.589844 14.796875 3.410156 15.542969 3.773438 16.109375 L 6.539062 20.488281 C 6.652344 20.648438 6.609375 20.917969 6.425781 21.03125 C 6.246094 21.144531 5.996094 21.101562 5.859375 20.917969 L 3.09375 16.566406 C 2.773438 16.109375 2.707031 15.542969 2.820312 15.023438 C 2.933594 14.5 3.273438 14.023438 3.726562 13.753906 C 3.953125 13.617188 4.179688 13.503906 4.429688 13.457031 L 5.585938 8.421875 C 5.722656 7.742188 5.316406 7.105469 4.679688 6.949219 C 4 6.8125 3.363281 7.242188 3.207031 7.878906 L 1.324219 16.066406 C 1.074219 17.019531 1.210938 18.175781 1.777344 19.128906 L 4.160156 22.914062 C 4.453125 23.390625 4.542969 23.957031 4.429688 24.457031 L 0.734375 28.675781 L 6.3125 28.699219 L 9.738281 23.164062 C 10.238281 22.167969 9.804688 21.167969 9.238281 20.238281 Z M 22.28125 11.300781 C 22.03125 7.265625 18.539062 4.203125 14.523438 4.476562 C 10.488281 4.726562 7.425781 8.21875 7.675781 12.234375 C 7.921875 16.269531 11.417969 19.332031 15.429688 19.082031 C 19.46875 18.832031 22.507812 15.363281 22.28125 11.300781 Z M 14.589844 18.21875 C 13.140625 18.152344 11.800781 17.5625 10.691406 16.609375 C 9.398438 15.476562 8.625 13.886719 8.511719 12.1875 C 8.421875 10.644531 8.808594 9.214844 9.714844 7.992188 C 9.761719 8.308594 9.898438 8.535156 9.898438 8.785156 C 9.898438 9.648438 9.851562 10.191406 10.371094 10.871094 C 10.601562 11.144531 10.667969 11.550781 10.78125 11.871094 C 10.894531 12.1875 11.28125 12.324219 11.550781 12.527344 C 12.097656 12.890625 12.617188 13.320312 13.183594 13.640625 C 13.570312 13.867188 13.796875 13.957031 13.707031 14.410156 C 13.640625 14.773438 13.640625 14.976562 13.457031 15.316406 C 13.414062 15.40625 13.730469 16.019531 13.820312 16.109375 C 14.117188 16.382812 14.386719 16.585938 14.707031 16.835938 C 15.25 17.132812 14.75 17.675781 14.589844 18.21875 Z M 16.566406 18.039062 C 16.699219 17.585938 16.996094 17.175781 17.289062 16.925781 C 17.539062 16.699219 17.835938 16.292969 17.949219 16.019531 C 18.0625 15.703125 18.222656 15.453125 18.378906 15.160156 C 18.628906 14.75 17.675781 14.230469 17.382812 14.09375 C 16.699219 13.84375 16.203125 13.527344 15.589844 13.140625 C 15.160156 12.867188 13.867188 13.480469 13.390625 13.277344 C 12.730469 13.027344 12.527344 12.824219 11.9375 12.4375 C 11.324219 12.050781 11.507812 11.210938 11.460938 10.578125 C 11.894531 10.578125 12.527344 10.394531 12.867188 10.714844 C 12.957031 10.804688 13.320312 11.324219 13.527344 11.121094 C 13.683594 10.960938 13.367188 10.394531 13.277344 10.257812 C 13.050781 9.851562 13.660156 9.625 13.933594 9.351562 C 14.296875 8.945312 15.113281 8.308594 15.046875 8.058594 C 14.976562 7.785156 14.136719 7.0625 13.660156 7.242188 C 13.59375 7.265625 13.050781 7.808594 12.9375 7.945312 C 12.9375 7.71875 12.890625 7.628906 12.890625 7.445312 C 12.890625 7.332031 12.617188 7.199219 12.617188 7.105469 C 12.640625 6.878906 13.183594 6.449219 13.34375 6.289062 C 13.253906 6.246094 12.867188 5.949219 12.777344 5.996094 C 12.527344 6.109375 12.253906 6.222656 11.984375 6.335938 C 11.984375 6.246094 11.960938 6.175781 11.9375 6.0625 C 12.4375 5.792969 12.980469 5.609375 13.546875 5.496094 L 14.070312 5.65625 L 14.457031 6.0625 L 14.839844 6.402344 C 14.839844 6.402344 15.066406 6.496094 15.160156 6.472656 C 15.25 6.449219 15.613281 5.972656 15.613281 5.972656 L 15.476562 5.632812 L 15.453125 5.292969 C 16.453125 5.359375 17.402344 5.675781 18.242188 6.199219 C 18.105469 6.222656 17.925781 6.246094 17.765625 6.289062 C 17.699219 6.246094 17.3125 6.335938 17.335938 6.472656 C 17.359375 6.609375 18.0625 7.175781 18.355469 7.652344 C 18.652344 8.171875 19.511719 8.488281 19.628906 9.058594 C 19.785156 9.714844 19.535156 10.554688 19.648438 11.324219 C 19.761719 12.074219 20.578125 12.890625 20.578125 12.890625 C 20.578125 12.890625 20.941406 12.980469 21.261719 12.9375 C 21.035156 14.070312 20.535156 15.136719 19.742188 16.019531 C 18.925781 17.019531 17.8125 17.722656 16.566406 18.039062 Z M 16.566406 18.039062 " fill-opacity="1" fill-rule="nonzero"/></g></svg>