<svg xmlns="http://www.w3.org/2000/svg" xmlns:xlink="http://www.w3.org/1999/xlink" width="52" zoomAndPan="magnify" viewBox="0 0 39 38.999999" height="52" preserveAspectRatio="xMidYMid meet" version="1.2"><g id="d66fbca6a1"><rect x="0" width="39" y="0" height="38.999999" style="fill:#ffffff;fill-opacity:1;stroke:none;"/><rect x="0" width="39" y="0" height="38.999999" style="fill:#ffffff;fill-opacity:1;stroke:none;"/><path style=" stroke:none;fill-rule:nonzero;fill:#007a3f;fill-opacity:0.5;" d="M 18.832031 0.421875 C 19.074219 0.28125 19.277344 0.214844 19.488281 0.214844 L 19.5 0.214844 C 19.714844 0.21875 19.925781 0.289062 20.183594 0.433594 L 29.890625 5.894531 C 30.777344 6.4375 31.363281 7.398438 31.363281 8.492188 L 31.363281 13.296875 L 19.421875 6.574219 C 19.324219 6.519531 19.21875 6.492188 19.121094 6.492188 C 19.042969 6.492188 18.972656 6.507812 18.910156 6.542969 C 18.847656 6.574219 18.796875 6.625 18.757812 6.691406 C 18.714844 6.769531 18.6875 6.875 18.6875 7.007812 L 18.6875 14.691406 L 18.613281 14.703125 L 18.609375 14.703125 L 18.53125 14.710938 L 18.453125 14.722656 L 18.441406 14.722656 L 18.363281 14.734375 L 18.289062 14.746094 L 18.191406 14.765625 L 18.113281 14.777344 L 18.109375 14.777344 L 18.027344 14.792969 L 17.949219 14.808594 L 17.9375 14.8125 L 17.859375 14.828125 L 17.785156 14.847656 L 17.777344 14.847656 C 17.429688 14.929688 17.089844 15.035156 16.761719 15.167969 C 16.695312 15.191406 16.628906 15.21875 16.570312 15.246094 C 16.507812 15.269531 16.445312 15.300781 16.382812 15.328125 L 16.378906 15.328125 L 16.308594 15.359375 L 16.238281 15.394531 L 16.226562 15.398438 L 16.164062 15.429688 L 16.101562 15.464844 L 16.074219 15.476562 L 16.011719 15.511719 L 15.953125 15.542969 L 15.933594 15.554688 C 15.90625 15.566406 15.875 15.585938 15.84375 15.601562 L 15.828125 15.613281 L 15.808594 15.621094 L 15.789062 15.632812 L 15.726562 15.667969 L 15.664062 15.707031 L 15.65625 15.710938 L 15.589844 15.75 L 15.527344 15.792969 L 15.519531 15.796875 C 15.328125 15.917969 15.140625 16.050781 14.960938 16.191406 C 14.921875 16.21875 14.886719 16.246094 14.855469 16.273438 C 14.824219 16.296875 14.789062 16.324219 14.753906 16.355469 L 14.75 16.355469 L 14.746094 16.363281 L 14.6875 16.410156 L 14.628906 16.460938 L 14.621094 16.46875 L 14.570312 16.511719 L 14.519531 16.558594 L 14.496094 16.582031 L 14.445312 16.625 L 14.398438 16.671875 L 14.378906 16.6875 L 14.21875 16.847656 L 14.179688 16.890625 L 14.136719 16.929688 L 14.066406 17.007812 L 14.023438 17.058594 L 13.988281 17.09375 L 13.957031 17.132812 L 13.921875 17.171875 L 13.882812 17.214844 L 13.847656 17.257812 L 13.820312 17.292969 L 13.78125 17.335938 L 13.742188 17.382812 L 13.722656 17.410156 C 13.632812 17.519531 13.550781 17.632812 13.46875 17.75 L 13.421875 17.816406 L 13.375 17.886719 L 13.363281 17.90625 L 13.304688 17.992188 L 13.269531 18.050781 L 13.226562 18.117188 L 13.21875 18.128906 L 13.183594 18.191406 C 13.167969 18.214844 13.15625 18.234375 13.148438 18.25 C 13.144531 18.253906 13.140625 18.261719 13.140625 18.265625 L 13.136719 18.269531 L 13.097656 18.335938 L 13.078125 18.375 L 13.054688 18.414062 L 13.019531 18.480469 L 12.976562 18.558594 L 12.941406 18.632812 L 12.867188 18.78125 L 12.832031 18.859375 L 12.804688 18.914062 L 12.761719 19.015625 L 12.730469 19.085938 L 12.699219 19.164062 C 12.691406 19.1875 12.683594 19.207031 12.675781 19.222656 C 12.671875 19.230469 12.667969 19.242188 12.667969 19.25 L 12.664062 19.257812 L 12.660156 19.261719 L 12.640625 19.320312 C 12.621094 19.367188 12.605469 19.40625 12.59375 19.449219 L 12.582031 19.476562 L 12.511719 19.699219 L 12.496094 19.75 L 12.476562 19.800781 L 12.464844 19.855469 L 12.457031 19.882812 L 12.433594 19.960938 L 12.414062 20.03125 L 12.390625 20.128906 L 12.375 20.199219 C 12.371094 20.222656 12.363281 20.25 12.355469 20.292969 L 12.339844 20.367188 L 12.320312 20.464844 L 12.308594 20.535156 L 12.289062 20.628906 L 12.277344 20.710938 L 12.265625 20.804688 L 12.253906 20.878906 L 12.242188 20.972656 L 12.234375 21.054688 L 12.226562 21.148438 L 12.21875 21.226562 L 12.214844 21.316406 L 12.214844 21.328125 L 12.210938 21.339844 L 12.207031 21.402344 L 12.203125 21.5 L 12.203125 21.578125 L 12.199219 21.664062 L 12.199219 21.84375 L 12.203125 21.9375 L 12.203125 22.027344 L 12.210938 22.117188 L 12.210938 22.121094 L 12.214844 22.207031 L 12.222656 22.300781 L 12.230469 22.390625 L 12.238281 22.476562 L 12.238281 22.480469 C 12.25 22.597656 12.265625 22.714844 12.285156 22.835938 L 12.296875 22.921875 L 12.3125 23.007812 L 12.3125 23.011719 L 12.316406 23.015625 L 12.332031 23.097656 L 12.347656 23.183594 C 12.367188 23.265625 12.382812 23.347656 12.402344 23.429688 L 12.417969 23.476562 L 12.429688 23.523438 L 12.429688 23.527344 L 12.476562 23.699219 C 12.484375 23.730469 12.496094 23.765625 12.507812 23.796875 C 12.507812 23.804688 12.511719 23.808594 12.511719 23.816406 L 12.527344 23.863281 L 12.527344 23.867188 L 12.582031 24.03125 L 12.613281 24.113281 L 12.640625 24.191406 L 12.644531 24.195312 L 12.671875 24.273438 L 12.703125 24.351562 L 12.707031 24.363281 L 12.738281 24.4375 L 12.773438 24.511719 L 12.773438 24.515625 L 12.804688 24.585938 L 7.628906 27.492188 L 7.628906 8.492188 C 7.628906 7.363281 8.253906 6.378906 9.1875 5.84375 L 9.238281 5.816406 Z M 18.832031 0.421875 "/><path style=" stroke:none;fill-rule:nonzero;fill:#007a3f;fill-opacity:0.5;" d="M 20.316406 8.851562 L 37.207031 18.347656 C 38.210938 18.914062 38.777344 19.933594 38.785156 20.984375 L 38.785156 31.835938 C 38.789062 32.113281 38.746094 32.324219 38.636719 32.503906 C 38.527344 32.679688 38.355469 32.824219 38.097656 32.96875 L 28.390625 38.429688 C 27.460938 38.902344 26.316406 38.917969 25.339844 38.371094 L 21.195312 36.039062 L 21.070312 35.96875 L 21.195312 35.898438 L 33.019531 29.257812 C 33.117188 29.199219 33.195312 29.125 33.242188 29.042969 C 33.28125 28.980469 33.304688 28.910156 33.304688 28.839844 C 33.304688 28.773438 33.289062 28.703125 33.246094 28.636719 C 33.199219 28.558594 33.121094 28.484375 33.003906 28.417969 L 26.230469 24.613281 L 26.167969 24.578125 L 26.199219 24.511719 L 26.199219 24.503906 L 26.261719 24.363281 L 26.292969 24.28125 L 26.320312 24.214844 L 26.328125 24.195312 L 26.355469 24.121094 L 26.378906 24.050781 L 26.382812 24.046875 L 26.40625 23.972656 L 26.433594 23.898438 L 26.4375 23.886719 L 26.484375 23.738281 L 26.484375 23.734375 C 26.585938 23.398438 26.660156 23.054688 26.710938 22.714844 C 26.722656 22.644531 26.730469 22.578125 26.738281 22.515625 C 26.746094 22.449219 26.75 22.382812 26.757812 22.316406 L 26.757812 22.3125 L 26.761719 22.238281 L 26.769531 22.160156 L 26.769531 22.148438 L 26.773438 22.082031 L 26.777344 22.011719 L 26.777344 21.980469 L 26.78125 21.914062 L 26.78125 21.824219 C 26.78125 21.792969 26.78125 21.761719 26.78125 21.726562 L 26.78125 21.59375 L 26.777344 21.519531 L 26.777344 21.4375 L 26.773438 21.363281 L 26.769531 21.351562 C 26.757812 21.128906 26.734375 20.90625 26.703125 20.683594 C 26.695312 20.636719 26.6875 20.59375 26.679688 20.554688 C 26.675781 20.515625 26.667969 20.472656 26.65625 20.425781 L 26.65625 20.417969 L 26.640625 20.34375 L 26.625 20.273438 L 26.625 20.261719 L 26.59375 20.128906 L 26.570312 20.035156 L 26.554688 19.96875 L 26.546875 19.945312 L 26.515625 19.820312 L 26.503906 19.785156 L 26.488281 19.726562 L 26.453125 19.621094 L 26.4375 19.570312 L 26.421875 19.523438 L 26.398438 19.460938 L 26.367188 19.367188 L 26.328125 19.265625 L 26.308594 19.210938 L 26.292969 19.171875 L 26.269531 19.117188 L 26.25 19.0625 L 26.234375 19.027344 C 26.179688 18.902344 26.125 18.773438 26.0625 18.648438 L 25.988281 18.5 L 25.984375 18.5 L 25.976562 18.476562 L 25.949219 18.433594 L 25.925781 18.386719 L 25.890625 18.324219 L 25.855469 18.257812 L 25.847656 18.246094 L 25.8125 18.183594 C 25.792969 18.152344 25.78125 18.132812 25.765625 18.109375 L 25.765625 18.105469 L 25.726562 18.042969 L 25.703125 18.003906 L 25.675781 17.964844 L 25.632812 17.898438 L 25.585938 17.828125 L 25.539062 17.761719 L 25.488281 17.6875 L 25.445312 17.625 L 25.394531 17.554688 L 25.355469 17.503906 L 25.34375 17.492188 L 25.289062 17.417969 L 25.1875 17.292969 C 25.160156 17.257812 25.144531 17.238281 25.128906 17.21875 L 25.121094 17.210938 L 25.078125 17.160156 C 25.046875 17.121094 25.015625 17.089844 24.988281 17.058594 L 24.96875 17.035156 L 24.914062 16.976562 L 24.863281 16.921875 L 24.808594 16.863281 L 24.613281 16.667969 L 24.558594 16.617188 L 24.484375 16.546875 L 24.429688 16.5 C 24.410156 16.480469 24.390625 16.464844 24.355469 16.433594 L 24.296875 16.382812 L 24.222656 16.320312 L 24.164062 16.273438 L 24.089844 16.210938 L 24.023438 16.164062 L 23.949219 16.105469 L 23.808594 16 L 23.738281 15.953125 L 23.660156 15.898438 L 23.527344 15.8125 L 23.515625 15.804688 L 23.507812 15.796875 L 23.496094 15.792969 L 23.445312 15.757812 L 23.359375 15.703125 L 23.292969 15.664062 L 23.214844 15.617188 L 23.136719 15.574219 L 23.054688 15.527344 L 22.972656 15.484375 L 22.96875 15.484375 L 22.890625 15.441406 L 22.804688 15.398438 L 22.800781 15.398438 L 22.722656 15.359375 L 22.640625 15.320312 L 22.554688 15.28125 L 22.472656 15.242188 L 22.46875 15.242188 C 22.359375 15.195312 22.246094 15.148438 22.132812 15.105469 L 22.046875 15.074219 L 21.964844 15.042969 L 21.960938 15.042969 L 21.957031 15.039062 L 21.875 15.011719 L 21.789062 14.984375 C 21.707031 14.957031 21.625 14.933594 21.542969 14.910156 L 21.496094 14.894531 L 21.445312 14.882812 L 21.441406 14.878906 L 21.355469 14.855469 L 21.269531 14.835938 L 21.265625 14.835938 C 21.226562 14.824219 21.183594 14.816406 21.144531 14.804688 L 21.097656 14.796875 L 21.09375 14.796875 L 21.09375 14.792969 L 21.003906 14.777344 L 20.921875 14.757812 L 20.917969 14.757812 L 20.746094 14.726562 L 20.742188 14.726562 L 20.660156 14.710938 L 20.574219 14.699219 L 20.5625 14.699219 L 20.480469 14.6875 L 20.394531 14.675781 L 20.390625 14.675781 L 20.316406 14.667969 Z M 20.316406 8.851562 "/><path style=" stroke:none;fill-rule:nonzero;fill:#007a3f;fill-opacity:0.5;" d="M 6.0625 15.949219 L 6.054688 29.386719 C 6.054688 29.496094 6.085938 29.597656 6.132812 29.683594 C 6.171875 29.746094 6.222656 29.796875 6.28125 29.832031 C 6.339844 29.867188 6.414062 29.886719 6.492188 29.886719 C 6.585938 29.886719 6.691406 29.855469 6.808594 29.789062 L 13.640625 25.949219 L 13.683594 26.003906 L 13.6875 26.007812 L 13.738281 26.070312 L 13.785156 26.128906 L 13.792969 26.136719 L 13.886719 26.253906 L 13.902344 26.269531 L 13.953125 26.332031 L 14.003906 26.386719 L 14.007812 26.390625 L 14.058594 26.449219 L 14.113281 26.507812 L 14.121094 26.519531 L 14.175781 26.574219 L 14.230469 26.632812 L 14.234375 26.636719 C 14.480469 26.890625 14.746094 27.121094 15.023438 27.335938 C 15.082031 27.378906 15.136719 27.417969 15.191406 27.457031 C 15.246094 27.496094 15.300781 27.535156 15.359375 27.574219 L 15.421875 27.617188 L 15.488281 27.660156 L 15.5 27.667969 L 15.558594 27.703125 L 15.617188 27.742188 L 15.644531 27.757812 L 15.78125 27.839844 C 15.808594 27.855469 15.839844 27.871094 15.871094 27.890625 L 15.886719 27.898438 L 15.90625 27.910156 L 15.925781 27.917969 L 15.988281 27.953125 L 16.054688 27.988281 L 16.0625 27.992188 L 16.195312 28.0625 L 16.207031 28.066406 C 16.410156 28.167969 16.621094 28.261719 16.835938 28.34375 C 16.882812 28.359375 16.921875 28.375 16.960938 28.390625 C 16.996094 28.402344 17.039062 28.417969 17.085938 28.433594 L 17.089844 28.433594 L 17.097656 28.4375 L 17.25 28.488281 L 17.382812 28.527344 L 17.414062 28.539062 L 17.480469 28.558594 L 17.542969 28.574219 L 17.566406 28.582031 L 17.632812 28.597656 L 17.695312 28.613281 L 17.734375 28.625 L 17.792969 28.636719 L 17.847656 28.652344 L 17.90625 28.664062 L 18.007812 28.6875 L 18.074219 28.699219 L 18.125 28.710938 L 18.226562 28.726562 L 18.285156 28.738281 L 18.339844 28.746094 L 18.382812 28.753906 L 18.445312 28.761719 L 18.503906 28.773438 L 18.539062 28.777344 C 18.679688 28.796875 18.824219 28.808594 18.96875 28.820312 L 19.050781 28.828125 L 19.136719 28.832031 L 19.160156 28.832031 L 19.210938 28.835938 L 19.265625 28.835938 L 19.335938 28.839844 L 19.503906 28.839844 C 19.539062 28.839844 19.566406 28.839844 19.589844 28.839844 L 19.671875 28.839844 L 19.765625 28.835938 L 19.84375 28.835938 L 19.929688 28.832031 L 20.015625 28.824219 L 20.105469 28.820312 L 20.183594 28.8125 L 20.269531 28.804688 L 20.335938 28.796875 L 20.351562 28.796875 L 20.445312 28.785156 L 20.609375 28.761719 C 20.644531 28.757812 20.667969 28.753906 20.6875 28.75 C 20.691406 28.75 20.695312 28.75 20.699219 28.746094 L 20.714844 28.746094 L 20.777344 28.734375 C 20.828125 28.726562 20.875 28.71875 20.917969 28.710938 L 20.945312 28.703125 L 21.179688 28.65625 L 21.234375 28.640625 L 21.289062 28.628906 L 21.34375 28.613281 L 21.371094 28.609375 L 21.449219 28.585938 L 21.523438 28.566406 L 21.621094 28.539062 L 21.691406 28.519531 C 21.714844 28.511719 21.742188 28.503906 21.785156 28.488281 L 21.859375 28.464844 L 21.953125 28.433594 L 22.027344 28.40625 L 22.117188 28.375 L 22.191406 28.34375 L 22.285156 28.308594 L 22.355469 28.28125 L 22.445312 28.242188 L 22.523438 28.207031 L 22.609375 28.167969 L 22.683594 28.136719 L 22.753906 28.101562 L 22.765625 28.09375 L 22.773438 28.089844 L 22.789062 28.085938 L 22.84375 28.058594 L 22.933594 28.011719 L 23.003906 27.976562 L 23.160156 27.890625 L 23.324219 27.796875 L 23.324219 27.792969 L 23.480469 27.699219 L 23.484375 27.699219 L 23.484375 27.695312 L 23.558594 27.648438 L 23.714844 27.546875 L 23.785156 27.496094 L 23.789062 27.492188 C 23.886719 27.425781 23.984375 27.351562 24.082031 27.277344 L 24.152344 27.222656 L 24.21875 27.167969 L 24.21875 27.164062 L 24.222656 27.164062 L 24.226562 27.160156 L 24.292969 27.105469 L 24.359375 27.046875 C 24.425781 26.992188 24.488281 26.9375 24.550781 26.878906 L 24.621094 26.808594 L 24.625 26.808594 L 24.75 26.683594 L 24.753906 26.683594 C 24.78125 26.652344 24.8125 26.625 24.839844 26.59375 L 24.855469 26.574219 L 24.871094 26.558594 L 24.875 26.558594 L 24.875 26.554688 L 24.9375 26.492188 L 24.992188 26.429688 L 24.996094 26.425781 L 25.054688 26.363281 L 25.109375 26.296875 L 25.113281 26.292969 L 25.164062 26.230469 L 25.21875 26.164062 L 25.226562 26.15625 L 25.277344 26.09375 L 25.328125 26.027344 L 25.332031 26.023438 L 25.375 25.964844 L 25.441406 26 L 30.550781 28.871094 L 30.425781 28.945312 L 13.65625 38.375 C 12.652344 38.9375 11.464844 38.902344 10.523438 38.386719 L 10.472656 38.355469 L 0.878906 32.960938 C 0.628906 32.824219 0.464844 32.679688 0.359375 32.5 C 0.257812 32.316406 0.214844 32.101562 0.214844 31.816406 L 0.214844 20.894531 C 0.257812 19.875 0.816406 18.898438 1.789062 18.351562 Z M 6.0625 15.949219 "/><path style=" stroke:none;fill-rule:nonzero;fill:#007a3f;fill-opacity:0.5;" d="M 19.5 27.308594 C 16.328125 27.308594 13.753906 24.789062 13.753906 21.683594 C 13.753906 18.578125 16.328125 16.058594 19.5 16.058594 C 22.671875 16.058594 25.246094 18.578125 25.246094 21.683594 C 25.246094 24.789062 22.671875 27.308594 19.5 27.308594 Z M 19.5 27.308594 "/></g></svg>