<svg xmlns="http://www.w3.org/2000/svg" xmlns:xlink="http://www.w3.org/1999/xlink" width="40" zoomAndPan="magnify" viewBox="0 0 30 30.000001" height="40" preserveAspectRatio="xMidYMid meet" version="1.0"><defs><filter x="0%" y="0%" width="100%" height="100%" id="737ffe188e"><feColorMatrix values="0 0 0 0 1 0 0 0 0 1 0 0 0 0 1 0 0 0 1 0" color-interpolation-filters="sRGB"/></filter><clipPath id="891319eb41"><path d="M 0.484375 0.34375 L 29.515625 0.34375 L 29.515625 28.652344 L 0.484375 28.652344 Z M 0.484375 0.34375 " clip-rule="nonzero"/></clipPath><clipPath id="7d55ab22ab"><path d="M 17.078125 7.667969 L 21.847656 7.667969 L 21.847656 12 L 17.078125 12 Z M 17.078125 7.667969 " clip-rule="nonzero"/></clipPath><clipPath id="f5ad821b27"><path d="M 18.917969 7.695312 C 21.824219 10.667969 21.824219 11.03125 21.675781 11.324219 C 21.605469 11.613281 21.167969 11.902344 20.878906 11.976562 C 20.515625 11.976562 19.863281 11.613281 19.644531 11.324219 C 19.5 11.03125 19.574219 10.453125 19.71875 10.234375 C 19.933594 9.945312 20.660156 9.652344 21.023438 9.726562 C 21.386719 9.871094 21.824219 10.523438 21.824219 10.816406 C 21.75 11.25 21.097656 11.902344 20.589844 11.976562 C 19.863281 11.976562 18.484375 10.597656 17.902344 9.871094 C 17.46875 9.289062 16.960938 8.417969 17.105469 8.054688 C 17.324219 7.695312 18.917969 7.695312 18.917969 7.695312 " clip-rule="nonzero"/></clipPath><mask id="5aa99fe2e2"><g filter="url(#737ffe188e)"><rect x="-3" width="36" fill="#000000" y="-3" height="36.000001" fill-opacity="0.05"/></g></mask><clipPath id="75a0807e5c"><path d="M 0.078125 0.667969 L 4.847656 0.667969 L 4.847656 5 L 0.078125 5 Z M 0.078125 0.667969 " clip-rule="nonzero"/></clipPath><clipPath id="90c267784a"><path d="M 1.917969 0.695312 C 4.824219 3.667969 4.824219 4.03125 4.675781 4.324219 C 4.605469 4.613281 4.167969 4.902344 3.878906 4.976562 C 3.515625 4.976562 2.863281 4.613281 2.644531 4.324219 C 2.5 4.03125 2.574219 3.453125 2.71875 3.234375 C 2.933594 2.945312 3.660156 2.652344 4.023438 2.726562 C 4.386719 2.871094 4.824219 3.523438 4.824219 3.816406 C 4.75 4.25 4.097656 4.902344 3.589844 4.976562 C 2.863281 4.976562 1.484375 3.597656 0.902344 2.871094 C 0.46875 2.289062 -0.0390625 1.417969 0.105469 1.054688 C 0.324219 0.695312 1.917969 0.695312 1.917969 0.695312 " clip-rule="nonzero"/></clipPath><clipPath id="43c738e5dc"><rect x="0" width="5" y="0" height="5"/></clipPath></defs><g clip-path="url(#891319eb41)"><path fill="#000000" d="M 2.359375 19.863281 L 4.046875 19.863281 L 2.457031 13.984375 C 2.386719 13.714844 2.589844 13.453125 2.867188 13.453125 L 2.867188 13.449219 L 8.460938 13.449219 C 8.742188 12.1875 9.9375 11.316406 11.257812 11.316406 L 11.441406 11.316406 C 10.589844 10.105469 10.738281 8.457031 11.785156 7.410156 C 13.285156 5.910156 15.8125 6.363281 16.710938 8.261719 C 16.910156 6.996094 17.746094 6.050781 18.988281 5.75 C 17.820312 4.578125 17.828125 2.6875 18.996094 1.519531 C 20.167969 0.347656 22.066406 0.347656 23.238281 1.519531 C 24.417969 2.699219 24.40625 4.613281 23.210938 5.78125 C 24.492188 6.058594 25.855469 6.78125 25.855469 8.332031 L 25.855469 13.105469 C 25.855469 13.5625 25.648438 13.945312 25.300781 14.226562 L 24.558594 14.855469 L 24.558594 19.863281 L 27.578125 19.863281 C 28.855469 19.863281 29.515625 21.410156 28.601562 22.320312 C 28.378906 22.542969 28.089844 22.695312 27.765625 22.734375 L 27.765625 27.527344 C 27.765625 28.140625 27.261719 28.644531 26.644531 28.644531 L 3.472656 28.644531 C 2.757812 28.644531 2.175781 28.0625 2.175781 27.347656 L 2.175781 22.734375 C 1.003906 22.585938 0.480469 21.140625 1.335938 20.285156 C 1.597656 20.023438 1.960938 19.863281 2.359375 19.863281 Z M 4.921875 19.863281 L 14.226562 19.863281 L 12.726562 14.296875 L 3.421875 14.296875 Z M 15.933594 19.863281 L 18.597656 19.863281 C 18.734375 19.8125 18.855469 19.730469 18.9375 19.625 C 19.027344 19.515625 19.078125 19.382812 19.078125 19.234375 L 19.078125 14.851562 L 19.085938 14.601562 C 19.085938 13.707031 18.640625 13.128906 18.066406 12.765625 C 17.449219 12.378906 16.582031 12.164062 15.875 12.164062 L 15.558594 12.164062 C 15.089844 12.457031 14.535156 12.625 13.949219 12.625 C 13.355469 12.625 12.804688 12.457031 12.335938 12.164062 L 11.257812 12.164062 C 10.40625 12.164062 9.609375 12.671875 9.339844 13.449219 L 13.050781 13.449219 C 13.253906 13.449219 13.425781 13.59375 13.464844 13.785156 L 14.78125 18.65625 C 15.011719 18.097656 15.5625 17.71875 16.1875 17.71875 L 16.882812 17.71875 L 16.882812 14.851562 C 16.882812 14.617188 17.074219 14.425781 17.308594 14.425781 C 17.542969 14.425781 17.730469 14.617188 17.730469 14.851562 L 17.730469 18.140625 C 17.730469 18.375 17.542969 18.5625 17.308594 18.5625 L 16.1875 18.5625 C 15.445312 18.5625 15.257812 19.585938 15.933594 19.863281 Z M 19.78125 19.863281 L 20.578125 19.863281 L 20.578125 17.601562 C 20.578125 17.367188 20.769531 17.175781 21.003906 17.175781 C 21.234375 17.175781 21.425781 17.367188 21.425781 17.601562 L 21.425781 19.863281 L 23.710938 19.863281 L 23.710938 15.574219 L 22.808594 16.335938 C 21.851562 17.148438 20.390625 16.390625 20.496094 15.148438 C 20.523438 14.789062 20.691406 14.441406 20.988281 14.191406 L 23.03125 12.460938 L 23.03125 9.65625 C 23.03125 9.421875 23.222656 9.234375 23.453125 9.234375 C 23.691406 9.234375 23.878906 9.421875 23.878906 9.65625 L 23.878906 12.65625 C 23.878906 12.773438 23.828125 12.894531 23.726562 12.976562 L 21.535156 14.835938 C 21.15625 15.15625 21.351562 15.78125 21.851562 15.824219 C 21.996094 15.835938 22.144531 15.792969 22.261719 15.691406 L 24.757812 13.578125 C 24.839844 13.511719 24.886719 13.480469 24.949219 13.363281 C 24.984375 13.285156 25.003906 13.203125 25.003906 13.109375 L 25.003906 8.335938 C 25.003906 7.769531 24.707031 7.375 24.300781 7.101562 C 23.574219 6.621094 22.53125 6.492188 22.035156 6.492188 C 21.746094 6.585938 21.433594 6.636719 21.117188 6.636719 C 20.792969 6.636719 20.488281 6.585938 20.195312 6.492188 L 19.882812 6.492188 C 18.4375 6.492188 17.515625 7.429688 17.515625 8.855469 L 17.515625 11.589844 C 17.847656 11.695312 18.183594 11.84375 18.492188 12.035156 L 18.492188 9.582031 C 18.492188 9.347656 18.679688 9.160156 18.914062 9.160156 C 19.148438 9.160156 19.339844 9.347656 19.339844 9.582031 L 19.339844 12.78125 C 19.703125 13.242188 19.933594 13.839844 19.933594 14.601562 C 19.933594 14.679688 19.929688 14.765625 19.925781 14.855469 L 19.925781 19.238281 C 19.925781 19.460938 19.875 19.671875 19.78125 19.863281 Z M 27.582031 20.707031 L 2.359375 20.707031 C 1.835938 20.707031 1.558594 21.34375 1.9375 21.722656 C 2.140625 21.925781 2.34375 21.898438 2.601562 21.898438 L 27.582031 21.898438 C 28.101562 21.898438 28.382812 21.261719 28 20.882812 C 27.894531 20.777344 27.746094 20.707031 27.582031 20.707031 Z M 22.636719 2.117188 C 21.796875 1.28125 20.433594 1.28125 19.59375 2.117188 C 18.753906 2.957031 18.753906 4.316406 19.59375 5.160156 C 20.433594 5.996094 21.796875 5.996094 22.636719 5.160156 C 23.476562 4.316406 23.476562 2.957031 22.636719 2.117188 Z M 8.828125 15.511719 C 10.234375 15.511719 10.941406 17.214844 9.949219 18.210938 C 8.953125 19.207031 7.242188 18.496094 7.242188 17.09375 C 7.242188 16.21875 7.953125 15.511719 8.828125 15.511719 Z M 9.347656 16.574219 C 8.886719 16.109375 8.09375 16.4375 8.09375 17.09375 C 8.09375 17.746094 8.886719 18.074219 9.347656 17.613281 C 9.636719 17.324219 9.636719 16.859375 9.347656 16.574219 Z M 16.667969 10.964844 C 16.597656 11.101562 16.519531 11.230469 16.429688 11.355469 C 16.507812 11.363281 16.585938 11.371094 16.667969 11.386719 Z M 15.507812 8.007812 C 14.648438 7.144531 13.246094 7.144531 12.386719 8.007812 C 11.519531 8.871094 11.519531 10.269531 12.386719 11.128906 C 13.246094 11.992188 14.648438 11.992188 15.507812 11.128906 C 16.371094 10.269531 16.371094 8.871094 15.507812 8.007812 Z M 26.914062 22.746094 L 3.023438 22.746094 L 3.023438 27.347656 C 3.023438 27.59375 3.226562 27.796875 3.472656 27.796875 L 26.644531 27.796875 C 26.792969 27.796875 26.914062 27.675781 26.914062 27.527344 Z M 26.914062 22.746094 " fill-opacity="1" fill-rule="nonzero"/></g><g clip-path="url(#7d55ab22ab)"><g clip-path="url(#f5ad821b27)"><g mask="url(#5aa99fe2e2)"><g transform="matrix(1, 0, 0, 1, 17, 7)"><g clip-path="url(#43c738e5dc)"><g clip-path="url(#75a0807e5c)"><g clip-path="url(#90c267784a)"><rect x="-23.6" width="43.2" fill="#e7191f" height="43.200001" y="-13.6" fill-opacity="1"/></g></g></g></g></g></g></g></svg>