<svg xmlns="http://www.w3.org/2000/svg" xmlns:xlink="http://www.w3.org/1999/xlink" width="40" zoomAndPan="magnify" viewBox="0 0 30 30.000001" height="40" preserveAspectRatio="xMidYMid meet" version="1.0"><defs><filter x="0%" y="0%" width="100%" height="100%" id="bd88f5343e"><feColorMatrix values="0 0 0 0 1 0 0 0 0 1 0 0 0 0 1 0 0 0 1 0" color-interpolation-filters="sRGB"/></filter><clipPath id="dc7815f692"><path d="M 2.59375 0.914062 L 6.574219 0.914062 L 6.574219 11.492188 L 2.59375 11.492188 Z M 2.59375 0.914062 " clip-rule="nonzero"/></clipPath><clipPath id="de0f9a319d"><path d="M 4.332031 9.074219 C 4.765625 9.652344 3.894531 10.015625 3.605469 9.871094 C 3.386719 9.726562 3.242188 9.363281 3.167969 8.855469 C 3.023438 7.621094 3.386719 3.339844 3.894531 2.03125 C 4.183594 1.453125 4.476562 1.089844 4.839844 0.945312 C 5.203125 0.871094 5.78125 0.945312 5.925781 1.234375 C 6.21875 1.597656 6 2.976562 5.636719 3.195312 C 5.417969 3.410156 4.765625 3.339844 4.476562 3.121094 C 4.183594 2.902344 3.894531 2.175781 3.96875 1.816406 C 4.039062 1.453125 4.765625 0.871094 5.128906 0.945312 C 5.566406 0.945312 6.074219 1.523438 6.363281 2.175781 C 6.871094 3.703125 6.21875 9.144531 5.636719 10.523438 C 5.417969 11.03125 5.203125 11.394531 4.765625 11.46875 C 4.257812 11.613281 3.023438 11.03125 2.734375 10.523438 C 2.515625 10.160156 2.589844 9.363281 2.878906 9.074219 C 3.167969 8.855469 4.332031 9.074219 4.332031 9.074219 " clip-rule="nonzero"/></clipPath><mask id="ef960f860e"><g filter="url(#bd88f5343e)"><rect x="-3" width="36" fill="#000000" y="-3" height="36.000001" fill-opacity="0.05"/></g></mask><clipPath id="9ca4e273a1"><path d="M 0.59375 0.914062 L 4.574219 0.914062 L 4.574219 11.492188 L 0.59375 11.492188 Z M 0.59375 0.914062 " clip-rule="nonzero"/></clipPath><clipPath id="cf4c3cf2dc"><path d="M 2.332031 9.074219 C 2.765625 9.652344 1.894531 10.015625 1.605469 9.871094 C 1.386719 9.726562 1.242188 9.363281 1.167969 8.855469 C 1.023438 7.621094 1.386719 3.339844 1.894531 2.03125 C 2.183594 1.453125 2.476562 1.089844 2.839844 0.945312 C 3.203125 0.871094 3.78125 0.945312 3.925781 1.234375 C 4.21875 1.597656 4 2.976562 3.636719 3.195312 C 3.417969 3.410156 2.765625 3.339844 2.476562 3.121094 C 2.183594 2.902344 1.894531 2.175781 1.96875 1.816406 C 2.039062 1.453125 2.765625 0.871094 3.128906 0.945312 C 3.566406 0.945312 4.074219 1.523438 4.363281 2.175781 C 4.871094 3.703125 4.21875 9.144531 3.636719 10.523438 C 3.417969 11.03125 3.203125 11.394531 2.765625 11.46875 C 2.257812 11.613281 1.023438 11.03125 0.734375 10.523438 C 0.515625 10.160156 0.589844 9.363281 0.878906 9.074219 C 1.167969 8.855469 2.332031 9.074219 2.332031 9.074219 " clip-rule="nonzero"/></clipPath><clipPath id="be67ce4a88"><rect x="0" width="5" y="0" height="12"/></clipPath><clipPath id="c4deff45dd"><path d="M 0.484375 1.234375 L 29.515625 1.234375 L 29.515625 28.089844 L 0.484375 28.089844 Z M 0.484375 1.234375 " clip-rule="nonzero"/></clipPath></defs><g clip-path="url(#dc7815f692)"><g clip-path="url(#de0f9a319d)"><g mask="url(#ef960f860e)"><g transform="matrix(1, 0, 0, 1, 2, 0.000000000000005773)"><g clip-path="url(#be67ce4a88)"><g clip-path="url(#9ca4e273a1)"><g clip-path="url(#cf4c3cf2dc)"><rect x="-8.6" width="43.2" fill="#e7191f" height="43.200001" y="-6.6" fill-opacity="1"/></g></g></g></g></g></g></g><g clip-path="url(#c4deff45dd)"><path fill="#000000" d="M 25.800781 7.847656 C 25.078125 7.847656 24.40625 8.058594 23.835938 8.421875 L 22.027344 5.886719 C 22.566406 5.410156 22.910156 4.71875 22.910156 3.9375 C 22.910156 2.496094 21.753906 1.328125 20.332031 1.328125 C 18.90625 1.328125 17.75 2.496094 17.75 3.9375 C 17.75 4.980469 18.363281 5.878906 19.242188 6.292969 L 18.523438 8.339844 L 15.320312 6.949219 C 15.460938 6.550781 15.535156 6.132812 15.535156 5.703125 C 15.535156 3.632812 13.871094 1.949219 11.820312 1.949219 C 9.773438 1.949219 8.105469 3.632812 8.105469 5.703125 C 8.105469 6.21875 8.207031 6.707031 8.394531 7.15625 L 5.246094 8.742188 C 4.789062 8.003906 3.988281 7.511719 3.066406 7.511719 C 1.640625 7.511719 0.484375 8.679688 0.484375 10.121094 C 0.484375 11.558594 1.640625 12.730469 3.066406 12.730469 C 3.15625 12.730469 3.238281 12.710938 3.328125 12.703125 L 3.929688 15.75 C 2.351562 16.179688 1.183594 17.640625 1.183594 19.371094 C 1.183594 21.441406 2.851562 23.125 4.898438 23.125 C 5.949219 23.125 6.894531 22.683594 7.574219 21.972656 L 9.902344 23.957031 C 9.617188 24.375 9.445312 24.886719 9.445312 25.433594 C 9.445312 26.875 10.601562 28.046875 12.027344 28.046875 C 13.449219 28.046875 14.605469 26.875 14.605469 25.433594 C 14.605469 24.457031 14.0625 23.609375 13.273438 23.164062 L 14.289062 20.800781 C 14.851562 21.019531 15.460938 21.140625 16.097656 21.140625 C 18.910156 21.140625 21.199219 18.828125 21.199219 15.984375 C 21.199219 15.347656 21.082031 14.742188 20.871094 14.179688 L 22.566406 13.441406 C 23.109375 14.414062 24.066406 15.117188 25.195312 15.304688 L 24.917969 18.210938 C 24.914062 18.210938 24.914062 18.210938 24.910156 18.210938 C 23.488281 18.210938 22.332031 19.378906 22.332031 20.820312 C 22.332031 22.257812 23.488281 23.429688 24.910156 23.429688 C 26.335938 23.429688 27.492188 22.257812 27.492188 20.820312 C 27.492188 19.550781 26.59375 18.496094 25.40625 18.261719 L 25.6875 15.351562 C 25.726562 15.355469 25.761719 15.359375 25.800781 15.359375 C 27.851562 15.359375 29.515625 13.675781 29.515625 11.601562 C 29.515625 9.53125 27.851562 7.847656 25.800781 7.847656 Z M 23.699219 22.535156 C 23.910156 22.289062 24.222656 22.066406 24.429688 22.023438 C 24.628906 21.980469 24.78125 21.839844 24.824219 21.652344 C 24.839844 21.59375 24.84375 21.515625 24.847656 21.359375 C 24.851562 21.28125 24.816406 21.207031 24.753906 21.15625 C 24.625 21.054688 24.511719 20.890625 24.449219 20.714844 C 24.429688 20.65625 24.386719 20.605469 24.332031 20.578125 C 24.332031 20.570312 24.332031 20.5625 24.328125 20.554688 C 24.371094 20.507812 24.398438 20.445312 24.398438 20.378906 C 24.394531 20.09375 24.394531 19.84375 24.5 19.738281 C 24.566406 19.671875 24.707031 19.636719 24.914062 19.636719 C 25.117188 19.636719 25.253906 19.671875 25.324219 19.738281 C 25.425781 19.84375 25.425781 20.09375 25.425781 20.382812 C 25.425781 20.449219 25.453125 20.511719 25.492188 20.558594 C 25.492188 20.5625 25.492188 20.570312 25.492188 20.578125 C 25.4375 20.605469 25.394531 20.65625 25.375 20.714844 C 25.3125 20.890625 25.199219 21.054688 25.070312 21.15625 C 25.007812 21.207031 24.972656 21.300781 24.976562 21.378906 C 24.980469 21.515625 24.984375 21.59375 24.996094 21.648438 C 25.042969 21.839844 25.195312 21.984375 25.394531 22.023438 C 25.601562 22.066406 25.910156 22.289062 26.125 22.535156 C 25.78125 22.78125 25.363281 22.933594 24.910156 22.933594 C 24.460938 22.933594 24.042969 22.78125 23.699219 22.535156 Z M 27 20.820312 C 27 21.347656 26.804688 21.820312 26.488281 22.191406 C 26.234375 21.90625 25.832031 21.605469 25.476562 21.535156 C 25.472656 21.519531 25.472656 21.496094 25.472656 21.464844 C 25.605469 21.332031 25.71875 21.167969 25.796875 20.984375 C 25.886719 20.917969 25.957031 20.800781 25.984375 20.648438 C 26.007812 20.503906 25.980469 20.371094 25.917969 20.277344 C 25.917969 19.9375 25.898438 19.617188 25.671875 19.390625 C 25.507812 19.21875 25.257812 19.136719 24.90625 19.136719 C 24.566406 19.136719 24.316406 19.21875 24.152344 19.390625 C 23.925781 19.617188 23.90625 19.933594 23.90625 20.277344 C 23.84375 20.371094 23.816406 20.503906 23.839844 20.652344 C 23.867188 20.800781 23.9375 20.917969 24.027344 20.984375 C 24.105469 21.164062 24.21875 21.332031 24.351562 21.460938 C 24.347656 21.492188 24.34375 21.519531 24.335938 21.535156 C 23.988281 21.605469 23.589844 21.90625 23.335938 22.191406 C 23.019531 21.820312 22.824219 21.347656 22.824219 20.820312 C 22.824219 19.65625 23.761719 18.707031 24.910156 18.707031 C 26.0625 18.707031 27 19.65625 27 20.820312 Z M 20.171875 4.273438 C 20.042969 4.171875 19.929688 4.007812 19.867188 3.832031 C 19.847656 3.773438 19.804688 3.722656 19.75 3.695312 C 19.75 3.6875 19.75 3.679688 19.746094 3.671875 C 19.789062 3.625 19.816406 3.5625 19.816406 3.496094 C 19.816406 3.210938 19.8125 2.960938 19.917969 2.855469 C 19.984375 2.789062 20.125 2.753906 20.332031 2.753906 C 20.535156 2.753906 20.675781 2.789062 20.742188 2.855469 C 20.847656 2.960938 20.847656 3.210938 20.84375 3.503906 C 20.84375 3.566406 20.871094 3.628906 20.914062 3.675781 C 20.910156 3.679688 20.910156 3.6875 20.910156 3.695312 C 20.855469 3.722656 20.8125 3.773438 20.792969 3.832031 C 20.730469 4.007812 20.617188 4.171875 20.488281 4.273438 C 20.425781 4.324219 20.390625 4.398438 20.394531 4.476562 C 20.398438 4.636719 20.402344 4.710938 20.414062 4.765625 C 20.460938 4.957031 20.613281 5.097656 20.8125 5.140625 C 21.019531 5.183594 21.332031 5.40625 21.542969 5.652344 C 21.199219 5.898438 20.78125 6.050781 20.332031 6.050781 C 19.878906 6.050781 19.460938 5.898438 19.117188 5.652344 C 19.332031 5.40625 19.640625 5.183594 19.851562 5.140625 C 20.046875 5.097656 20.199219 4.957031 20.246094 4.765625 C 20.257812 4.710938 20.261719 4.636719 20.265625 4.476562 C 20.269531 4.398438 20.234375 4.324219 20.171875 4.273438 Z M 18.242188 3.9375 C 18.242188 2.773438 19.179688 1.824219 20.332031 1.824219 C 21.480469 1.824219 22.417969 2.773438 22.417969 3.9375 C 22.417969 4.464844 22.222656 4.9375 21.90625 5.308594 C 21.648438 5.023438 21.25 4.722656 20.894531 4.65625 C 20.890625 4.636719 20.890625 4.613281 20.890625 4.582031 C 21.023438 4.449219 21.136719 4.285156 21.214844 4.101562 C 21.304688 4.035156 21.375 3.917969 21.402344 3.769531 C 21.425781 3.621094 21.398438 3.488281 21.335938 3.394531 C 21.335938 3.050781 21.316406 2.734375 21.089844 2.507812 C 20.925781 2.335938 20.675781 2.253906 20.324219 2.253906 C 19.984375 2.253906 19.734375 2.335938 19.570312 2.507812 C 19.34375 2.734375 19.324219 3.050781 19.324219 3.394531 C 19.261719 3.488281 19.234375 3.621094 19.257812 3.769531 C 19.285156 3.921875 19.355469 4.035156 19.445312 4.101562 C 19.523438 4.28125 19.636719 4.449219 19.769531 4.578125 C 19.765625 4.609375 19.761719 4.636719 19.753906 4.652344 C 19.40625 4.722656 19.011719 5.023438 18.753906 5.308594 C 18.4375 4.9375 18.242188 4.464844 18.242188 3.9375 Z M 19.703125 6.460938 C 19.90625 6.511719 20.113281 6.546875 20.332031 6.546875 C 20.804688 6.546875 21.246094 6.40625 21.628906 6.179688 L 23.433594 8.710938 C 23.007812 9.066406 22.664062 9.519531 22.429688 10.03125 L 18.976562 8.535156 Z M 16.097656 10.824219 C 13.285156 10.824219 10.996094 13.136719 10.996094 15.984375 C 10.996094 16.410156 11.050781 16.824219 11.148438 17.21875 L 8.375 18.058594 C 8.078125 17.257812 7.519531 16.589844 6.804688 16.152344 L 10.351562 9.152344 C 10.800781 9.351562 11.296875 9.460938 11.820312 9.460938 C 13.226562 9.460938 14.492188 8.660156 15.121094 7.40625 L 18.355469 8.808594 L 17.570312 11.042969 C 17.105469 10.902344 16.609375 10.824219 16.097656 10.824219 Z M 11.511719 6.300781 C 11.300781 6.136719 11.117188 5.871094 11.023438 5.589844 C 10.996094 5.511719 10.933594 5.457031 10.859375 5.433594 C 10.847656 5.414062 10.839844 5.390625 10.832031 5.351562 C 10.828125 5.3125 10.828125 5.28125 10.828125 5.261719 C 10.894531 5.214844 10.9375 5.132812 10.9375 5.046875 C 10.9375 4.664062 10.933594 4.332031 11.046875 4.121094 C 11.121094 3.984375 11.273438 3.824219 11.824219 3.824219 C 12.367188 3.824219 12.523438 3.984375 12.59375 4.121094 C 12.707031 4.332031 12.707031 4.664062 12.703125 5.058594 C 12.703125 5.144531 12.746094 5.21875 12.8125 5.265625 C 12.816406 5.285156 12.816406 5.3125 12.808594 5.347656 C 12.800781 5.386719 12.792969 5.414062 12.785156 5.433594 C 12.707031 5.457031 12.648438 5.511719 12.621094 5.589844 C 12.523438 5.871094 12.339844 6.136719 12.128906 6.300781 C 12.066406 6.351562 12.03125 6.433594 12.035156 6.511719 C 12.039062 6.707031 12.042969 6.832031 12.0625 6.90625 C 12.121094 7.144531 12.308594 7.320312 12.558594 7.371094 C 12.917969 7.445312 13.472656 7.851562 13.796875 8.269531 C 13.242188 8.707031 12.554688 8.960938 11.820312 8.960938 C 11.074219 8.960938 10.390625 8.703125 9.84375 8.269531 C 10.167969 7.851562 10.726562 7.445312 11.082031 7.371094 C 11.332031 7.320312 11.519531 7.144531 11.578125 6.910156 C 11.597656 6.832031 11.601562 6.707031 11.605469 6.503906 C 11.609375 6.425781 11.574219 6.351562 11.511719 6.300781 Z M 11.820312 2.445312 C 13.597656 2.445312 15.042969 3.90625 15.042969 5.703125 C 15.042969 6.148438 14.957031 6.582031 14.785156 6.988281 C 14.632812 7.347656 14.414062 7.660156 14.160156 7.933594 C 13.757812 7.425781 13.125 6.980469 12.65625 6.882812 C 12.632812 6.878906 12.558594 6.859375 12.542969 6.789062 C 12.535156 6.753906 12.53125 6.6875 12.53125 6.609375 C 12.742188 6.414062 12.921875 6.152344 13.039062 5.871094 C 13.164062 5.792969 13.257812 5.636719 13.292969 5.433594 C 13.328125 5.226562 13.289062 5.046875 13.195312 4.9375 C 13.195312 4.546875 13.183594 4.179688 13.03125 3.886719 C 12.828125 3.511719 12.4375 3.328125 11.816406 3.328125 C 11.203125 3.328125 10.8125 3.511719 10.613281 3.886719 C 10.457031 4.179688 10.445312 4.542969 10.445312 4.9375 C 10.351562 5.050781 10.3125 5.230469 10.347656 5.4375 C 10.382812 5.640625 10.480469 5.792969 10.601562 5.871094 C 10.71875 6.152344 10.898438 6.414062 11.113281 6.609375 C 11.109375 6.6875 11.105469 6.753906 11.101562 6.789062 C 11.082031 6.859375 11.007812 6.878906 10.984375 6.882812 C 10.515625 6.980469 9.882812 7.425781 9.480469 7.9375 C 8.933594 7.351562 8.597656 6.566406 8.597656 5.703125 C 8.597656 3.90625 10.042969 2.445312 11.820312 2.445312 Z M 0.976562 10.121094 C 0.976562 8.957031 1.914062 8.007812 3.066406 8.007812 C 4.21875 8.007812 5.152344 8.957031 5.152344 10.121094 C 5.152344 10.648438 4.957031 11.121094 4.640625 11.492188 C 4.386719 11.207031 3.988281 10.90625 3.628906 10.839844 C 3.628906 10.820312 3.625 10.792969 3.625 10.765625 C 3.757812 10.632812 3.871094 10.464844 3.949219 10.285156 C 4.042969 10.21875 4.109375 10.101562 4.136719 9.949219 C 4.160156 9.800781 4.136719 9.667969 4.070312 9.574219 C 4.070312 9.066406 4.007812 8.441406 3.058594 8.4375 C 2.617188 8.4375 2.328125 8.578125 2.179688 8.859375 C 2.070312 9.066406 2.058594 9.3125 2.058594 9.578125 C 1.996094 9.671875 1.96875 9.804688 1.996094 9.953125 C 2.019531 10.101562 2.089844 10.21875 2.179688 10.285156 C 2.257812 10.464844 2.371094 10.632812 2.503906 10.761719 C 2.5 10.792969 2.496094 10.820312 2.488281 10.835938 C 2.140625 10.90625 1.746094 11.207031 1.492188 11.492188 C 1.175781 11.121094 0.976562 10.648438 0.976562 10.121094 Z M 1.855469 11.835938 C 2.066406 11.589844 2.375 11.367188 2.582031 11.324219 C 2.78125 11.28125 2.933594 11.140625 2.980469 10.949219 C 2.992188 10.890625 2.996094 10.8125 3 10.660156 C 3.003906 10.582031 2.96875 10.507812 2.90625 10.457031 C 2.777344 10.355469 2.664062 10.191406 2.601562 10.015625 C 2.582031 9.957031 2.539062 9.90625 2.488281 9.878906 C 2.484375 9.871094 2.484375 9.863281 2.484375 9.855469 C 2.523438 9.808594 2.550781 9.746094 2.550781 9.679688 C 2.550781 9.441406 2.550781 9.21875 2.613281 9.09375 C 2.636719 9.050781 2.699219 8.9375 3.070312 8.9375 C 3.5625 8.9375 3.582031 9.078125 3.578125 9.6875 C 3.578125 9.75 3.605469 9.8125 3.648438 9.855469 C 3.644531 9.863281 3.644531 9.871094 3.644531 9.878906 C 3.589844 9.90625 3.546875 9.957031 3.527344 10.015625 C 3.464844 10.191406 3.351562 10.355469 3.222656 10.457031 C 3.160156 10.507812 3.125 10.585938 3.128906 10.667969 C 3.132812 10.808594 3.136719 10.890625 3.152344 10.949219 C 3.195312 11.140625 3.347656 11.28125 3.546875 11.324219 C 3.753906 11.367188 4.066406 11.589844 4.277344 11.835938 C 3.933594 12.082031 3.519531 12.234375 3.066406 12.234375 C 2.613281 12.234375 2.195312 12.082031 1.855469 11.835938 Z M 3.808594 12.605469 C 4.867188 12.28125 5.644531 11.296875 5.644531 10.121094 C 5.644531 9.789062 5.578125 9.476562 5.46875 9.1875 L 8.617188 7.597656 C 8.933594 8.140625 9.378906 8.597656 9.914062 8.921875 L 6.367188 15.921875 C 5.917969 15.726562 5.421875 15.613281 4.898438 15.613281 C 4.734375 15.613281 4.570312 15.628906 4.410156 15.652344 Z M 1.675781 19.371094 C 1.675781 17.574219 3.121094 16.113281 4.898438 16.113281 C 6.675781 16.113281 8.121094 17.574219 8.121094 19.371094 C 8.121094 20.234375 7.785156 21.019531 7.242188 21.601562 C 6.835938 21.09375 6.203125 20.648438 5.734375 20.550781 C 5.710938 20.546875 5.636719 20.527344 5.621094 20.457031 C 5.613281 20.421875 5.609375 20.355469 5.609375 20.277344 C 5.820312 20.082031 6 19.820312 6.117188 19.535156 C 6.242188 19.460938 6.335938 19.304688 6.371094 19.097656 C 6.40625 18.894531 6.367188 18.714844 6.273438 18.601562 C 6.273438 18.210938 6.261719 17.847656 6.105469 17.554688 C 5.90625 17.179688 5.515625 16.992188 4.890625 16.992188 C 4.28125 16.992188 3.890625 17.179688 3.691406 17.554688 C 3.535156 17.84375 3.523438 18.207031 3.523438 18.601562 C 3.429688 18.714844 3.390625 18.894531 3.425781 19.105469 C 3.460938 19.304688 3.554688 19.460938 3.679688 19.535156 C 3.796875 19.820312 3.976562 20.082031 4.1875 20.277344 C 4.1875 20.351562 4.183594 20.421875 4.179688 20.457031 C 4.160156 20.527344 4.085938 20.546875 4.0625 20.550781 C 3.59375 20.648438 2.960938 21.09375 2.554688 21.601562 C 2.011719 21.019531 1.675781 20.234375 1.675781 19.371094 Z M 2.921875 21.9375 C 3.242188 21.519531 3.800781 21.113281 4.160156 21.039062 C 4.410156 20.988281 4.597656 20.808594 4.65625 20.574219 C 4.675781 20.496094 4.679688 20.375 4.683594 20.171875 C 4.6875 20.089844 4.652344 20.015625 4.589844 19.96875 C 4.378906 19.800781 4.195312 19.535156 4.097656 19.257812 C 4.074219 19.179688 4.011719 19.121094 3.9375 19.101562 C 3.925781 19.082031 3.917969 19.054688 3.910156 19.019531 C 3.90625 18.980469 3.90625 18.949219 3.90625 18.929688 C 3.972656 18.882812 4.015625 18.800781 4.015625 18.714844 C 4.015625 18.332031 4.011719 18 4.125 17.789062 C 4.199219 17.652344 4.351562 17.492188 4.902344 17.492188 C 5.445312 17.492188 5.601562 17.652344 5.671875 17.789062 C 5.785156 18 5.785156 18.332031 5.78125 18.726562 C 5.78125 18.808594 5.824219 18.886719 5.890625 18.929688 C 5.890625 18.949219 5.894531 18.980469 5.886719 19.015625 C 5.878906 19.054688 5.871094 19.082031 5.859375 19.101562 C 5.785156 19.121094 5.726562 19.179688 5.699219 19.257812 C 5.601562 19.535156 5.417969 19.800781 5.207031 19.96875 C 5.144531 20.015625 5.109375 20.097656 5.113281 20.175781 C 5.117188 20.375 5.121094 20.496094 5.140625 20.574219 C 5.199219 20.808594 5.386719 20.988281 5.636719 21.039062 C 5.996094 21.113281 6.554688 21.519531 6.878906 21.9375 C 6.332031 22.367188 5.644531 22.628906 4.898438 22.628906 C 4.152344 22.628906 3.46875 22.367188 2.921875 21.9375 Z M 10.816406 27.148438 C 11.027344 26.90625 11.335938 26.679688 11.542969 26.636719 C 11.742188 26.597656 11.894531 26.453125 11.9375 26.269531 C 11.953125 26.207031 11.957031 26.128906 11.960938 25.976562 C 11.964844 25.898438 11.929688 25.820312 11.867188 25.773438 C 11.738281 25.671875 11.625 25.503906 11.5625 25.332031 C 11.542969 25.269531 11.5 25.222656 11.449219 25.195312 C 11.445312 25.1875 11.445312 25.179688 11.441406 25.171875 C 11.484375 25.125 11.511719 25.0625 11.511719 24.996094 C 11.511719 24.707031 11.511719 24.460938 11.613281 24.355469 C 11.683594 24.285156 11.820312 24.25 12.03125 24.25 C 12.230469 24.25 12.371094 24.285156 12.4375 24.355469 C 12.542969 24.460938 12.542969 24.707031 12.539062 25 C 12.539062 25.066406 12.566406 25.128906 12.609375 25.171875 C 12.605469 25.179688 12.605469 25.1875 12.605469 25.195312 C 12.550781 25.222656 12.507812 25.269531 12.488281 25.332031 C 12.425781 25.503906 12.3125 25.671875 12.183594 25.773438 C 12.121094 25.820312 12.089844 25.917969 12.089844 25.996094 C 12.09375 26.128906 12.097656 26.207031 12.109375 26.265625 C 12.15625 26.453125 12.308594 26.597656 12.507812 26.636719 C 12.714844 26.679688 13.027344 26.90625 13.238281 27.148438 C 12.894531 27.398438 12.476562 27.546875 12.027344 27.546875 C 11.574219 27.546875 11.15625 27.398438 10.816406 27.148438 Z M 14.113281 25.433594 C 14.113281 25.960938 13.917969 26.4375 13.601562 26.808594 C 13.347656 26.519531 12.945312 26.222656 12.589844 26.152344 C 12.585938 26.136719 12.585938 26.109375 12.585938 26.078125 C 12.71875 25.949219 12.832031 25.78125 12.910156 25.601562 C 13 25.535156 13.070312 25.417969 13.097656 25.265625 C 13.121094 25.121094 13.09375 24.988281 13.03125 24.894531 C 13.03125 24.550781 13.011719 24.234375 12.785156 24.003906 C 12.621094 23.835938 12.371094 23.753906 12.019531 23.753906 C 11.679688 23.753906 11.429688 23.835938 11.265625 24.003906 C 11.039062 24.230469 11.019531 24.546875 11.019531 24.894531 C 10.957031 24.988281 10.929688 25.121094 10.957031 25.269531 C 10.980469 25.417969 11.050781 25.535156 11.140625 25.601562 C 11.21875 25.78125 11.332031 25.949219 11.464844 26.078125 C 11.460938 26.109375 11.457031 26.132812 11.449219 26.148438 C 11.101562 26.21875 10.707031 26.519531 10.449219 26.808594 C 10.136719 26.4375 9.9375 25.960938 9.9375 25.433594 C 9.9375 24.269531 10.875 23.324219 12.027344 23.324219 C 13.179688 23.324219 14.113281 24.269531 14.113281 25.433594 Z M 12.820312 22.964844 C 12.570312 22.882812 12.304688 22.824219 12.027344 22.824219 C 11.324219 22.824219 10.6875 23.113281 10.222656 23.574219 L 7.890625 21.589844 C 8.34375 20.96875 8.613281 20.203125 8.613281 19.371094 C 8.613281 19.082031 8.578125 18.804688 8.519531 18.535156 L 11.289062 17.695312 C 11.734375 18.96875 12.65625 20.007812 13.839844 20.601562 Z M 13.179688 19.589844 C 13.1875 19.578125 13.203125 19.574219 13.210938 19.5625 C 13.675781 18.933594 14.5 18.332031 15.042969 18.21875 C 15.355469 18.15625 15.589844 17.9375 15.660156 17.644531 C 15.683594 17.550781 15.691406 17.386719 15.699219 17.101562 C 15.699219 17.019531 15.664062 16.945312 15.605469 16.898438 C 15.296875 16.652344 15.027344 16.265625 14.886719 15.855469 C 14.855469 15.765625 14.777344 15.703125 14.6875 15.691406 C 14.664062 15.664062 14.632812 15.597656 14.617188 15.507812 C 14.601562 15.410156 14.609375 15.335938 14.621094 15.304688 C 14.703125 15.257812 14.761719 15.164062 14.761719 15.066406 C 14.757812 14.515625 14.757812 14.039062 14.925781 13.722656 C 15.03125 13.519531 15.269531 13.253906 16.105469 13.25 C 16.925781 13.253906 17.160156 13.519531 17.269531 13.722656 C 17.433594 14.039062 17.433594 14.515625 17.433594 15.078125 C 17.433594 15.175781 17.488281 15.265625 17.574219 15.304688 C 17.582031 15.339844 17.59375 15.410156 17.578125 15.503906 C 17.5625 15.597656 17.527344 15.664062 17.507812 15.691406 C 17.417969 15.703125 17.339844 15.765625 17.308594 15.855469 C 17.167969 16.265625 16.898438 16.652344 16.589844 16.898438 C 16.527344 16.945312 16.492188 17.019531 16.496094 17.097656 C 16.503906 17.375 16.507812 17.546875 16.53125 17.644531 C 16.605469 17.9375 16.839844 18.15625 17.148438 18.21875 C 17.695312 18.332031 18.515625 18.933594 18.984375 19.5625 C 18.992188 19.574219 19.003906 19.582031 19.011719 19.589844 C 18.21875 20.25 17.203125 20.644531 16.097656 20.644531 C 14.992188 20.644531 13.976562 20.25 13.179688 19.589844 Z M 19.371094 19.257812 C 18.832031 18.535156 17.902344 17.867188 17.246094 17.734375 C 17.125 17.707031 17.035156 17.628906 17.011719 17.523438 C 17 17.480469 16.996094 17.335938 16.992188 17.207031 C 17.300781 16.933594 17.5625 16.554688 17.726562 16.144531 C 17.886719 16.058594 18.015625 15.859375 18.0625 15.585938 C 18.109375 15.3125 18.054688 15.078125 17.925781 14.945312 C 17.925781 14.398438 17.910156 13.882812 17.703125 13.488281 C 17.441406 12.996094 16.917969 12.753906 16.089844 12.753906 C 15.273438 12.753906 14.75 12.996094 14.492188 13.488281 C 14.28125 13.882812 14.269531 14.390625 14.269531 14.945312 C 14.140625 15.078125 14.085938 15.3125 14.132812 15.589844 C 14.179688 15.859375 14.308594 16.058594 14.46875 16.144531 C 14.632812 16.554688 14.894531 16.933594 15.203125 17.207031 C 15.199219 17.335938 15.191406 17.484375 15.183594 17.527344 C 15.15625 17.628906 15.070312 17.707031 14.949219 17.734375 C 14.292969 17.867188 13.359375 18.535156 12.820312 19.257812 C 11.996094 18.417969 11.484375 17.257812 11.484375 15.984375 C 11.484375 13.410156 13.554688 11.320312 16.097656 11.320312 C 18.640625 11.320312 20.707031 13.410156 20.707031 15.984375 C 20.707031 17.257812 20.199219 18.417969 19.371094 19.257812 Z M 20.675781 13.722656 C 20.128906 12.59375 19.191406 11.691406 18.035156 11.210938 L 18.808594 9.003906 L 22.25 10.496094 C 22.144531 10.847656 22.085938 11.21875 22.085938 11.601562 C 22.085938 12.09375 22.183594 12.5625 22.351562 12.992188 Z M 23.824219 14.167969 C 24.144531 13.75 24.703125 13.34375 25.0625 13.269531 C 25.3125 13.21875 25.5 13.042969 25.558594 12.804688 C 25.578125 12.730469 25.582031 12.601562 25.585938 12.402344 C 25.589844 12.324219 25.554688 12.25 25.492188 12.199219 C 25.28125 12.035156 25.097656 11.769531 25.003906 11.488281 C 24.976562 11.410156 24.914062 11.355469 24.839844 11.332031 C 24.832031 11.3125 24.820312 11.289062 24.8125 11.25 C 24.808594 11.210938 24.808594 11.179688 24.808594 11.160156 C 24.875 11.113281 24.917969 11.03125 24.917969 10.949219 C 24.917969 10.5625 24.914062 10.230469 25.027344 10.023438 C 25.101562 9.882812 25.253906 9.722656 25.808594 9.722656 C 26.347656 9.722656 26.503906 9.882812 26.574219 10.023438 C 26.6875 10.230469 26.6875 10.5625 26.683594 10.957031 C 26.683594 11.042969 26.726562 11.117188 26.792969 11.164062 C 26.792969 11.183594 26.796875 11.210938 26.789062 11.246094 C 26.78125 11.285156 26.773438 11.3125 26.761719 11.332031 C 26.6875 11.355469 26.628906 11.410156 26.601562 11.488281 C 26.503906 11.769531 26.320312 12.035156 26.109375 12.199219 C 26.046875 12.25 26.011719 12.324219 26.015625 12.402344 C 26.019531 12.601562 26.027344 12.730469 26.042969 12.804688 C 26.101562 13.042969 26.289062 13.21875 26.539062 13.269531 C 26.898438 13.34375 27.457031 13.75 27.78125 14.167969 C 27.234375 14.601562 26.546875 14.863281 25.800781 14.863281 C 25.054688 14.863281 24.371094 14.601562 23.824219 14.167969 Z M 28.144531 13.835938 C 27.738281 13.324219 27.105469 12.878906 26.636719 12.785156 C 26.613281 12.777344 26.539062 12.757812 26.523438 12.691406 C 26.515625 12.65625 26.511719 12.585938 26.511719 12.507812 C 26.722656 12.3125 26.902344 12.050781 27.019531 11.769531 C 27.144531 11.691406 27.238281 11.535156 27.273438 11.332031 C 27.308594 11.125 27.269531 10.945312 27.175781 10.835938 C 27.175781 10.445312 27.164062 10.078125 27.011719 9.789062 C 26.8125 9.410156 26.417969 9.226562 25.792969 9.226562 C 25.183594 9.226562 24.792969 9.410156 24.59375 9.789062 C 24.4375 10.078125 24.425781 10.441406 24.425781 10.835938 C 24.332031 10.949219 24.292969 11.128906 24.328125 11.335938 C 24.363281 11.539062 24.457031 11.691406 24.582031 11.769531 C 24.699219 12.050781 24.878906 12.3125 25.09375 12.507812 C 25.089844 12.585938 25.085938 12.652344 25.082031 12.6875 C 25.0625 12.757812 24.988281 12.777344 24.96875 12.785156 C 24.496094 12.878906 23.863281 13.324219 23.460938 13.835938 C 22.914062 13.25 22.578125 12.464844 22.578125 11.601562 C 22.578125 9.804688 24.023438 8.34375 25.800781 8.34375 C 27.578125 8.34375 29.023438 9.804688 29.023438 11.601562 C 29.023438 12.464844 28.6875 13.25 28.144531 13.835938 Z M 28.144531 13.835938 " fill-opacity="1" fill-rule="nonzero"/></g></svg>